<?xml version="1.0" standalone="no"?>
<!DOCTYPE svg PUBLIC "-//W3C//DTD SVG 20010904//EN"
 "http://www.w3.org/TR/2001/REC-SVG-20010904/DTD/svg10.dtd">
<svg version="1.0" xmlns="http://www.w3.org/2000/svg"
 width="550.000000pt" height="550.000000pt" viewBox="0 0 550.000000 550.000000"
 preserveAspectRatio="xMidYMid meet">

<g transform="translate(0.000000,550.000000) scale(0.100000,-0.100000)"
fill="#000000" stroke="none">
<path d="M2309 5477 c-71 -38 -83 -74 -114 -342 -14 -126 -28 -244 -31 -261
-5 -29 -11 -33 -115 -67 -61 -20 -167 -64 -236 -97 -69 -33 -130 -57 -137 -53
-6 4 -99 77 -206 162 -107 84 -209 160 -227 168 -39 16 -82 17 -120 3 -37 -14
-591 -566 -609 -607 -19 -44 -18 -92 4 -133 10 -19 85 -120 168 -225 82 -104
153 -195 157 -201 4 -7 -19 -66 -52 -133 -32 -66 -75 -172 -97 -235 -36 -109
-40 -115 -69 -120 -16 -3 -133 -17 -260 -31 -268 -31 -304 -43 -342 -114 -23
-44 -23 -45 -23 -441 0 -396 0 -397 23 -441 38 -71 74 -83 342 -114 127 -14
244 -28 260 -31 29 -5 32 -12 68 -117 21 -62 65 -168 98 -236 32 -68 56 -128
52 -135 -4 -6 -75 -96 -157 -201 -83 -104 -158 -206 -168 -225 -22 -41 -23
-89 -4 -133 18 -41 572 -592 609 -606 41 -16 88 -13 127 7 19 9 121 85 225
168 105 82 195 153 201 157 7 4 68 -20 137 -53 69 -33 176 -77 236 -97 l110
-36 6 -41 c3 -23 18 -145 33 -272 32 -262 41 -287 116 -323 41 -20 58 -21 429
-21 248 0 396 4 414 11 31 11 79 53 95 82 5 10 27 140 48 289 22 149 40 271
42 273 2 1 53 18 113 39 61 20 166 64 234 97 68 32 124 59 126 59 1 0 96 -74
211 -165 115 -91 224 -170 242 -176 20 -6 53 -8 80 -4 45 7 57 16 334 293 158
157 294 300 303 318 20 42 19 92 -3 134 -9 19 -85 121 -168 225 -82 105 -153
195 -157 201 -4 7 20 67 52 135 33 68 76 174 97 234 20 61 38 111 40 113 1 2
118 17 260 33 300 35 332 46 371 118 23 44 23 45 23 439 0 544 22 509 -344
554 -127 15 -249 30 -271 33 l-40 6 -39 115 c-22 63 -65 169 -97 235 -33 67
-56 126 -52 133 4 6 75 97 157 201 83 105 158 206 168 225 20 39 23 85 8 127
-14 37 -566 591 -607 609 -44 19 -92 18 -133 -4 -19 -10 -120 -85 -225 -168
-104 -82 -195 -153 -201 -157 -7 -4 -66 19 -133 52 -66 32 -172 75 -235 97
-109 36 -115 40 -120 69 -3 16 -17 134 -31 260 -31 268 -43 304 -114 342 -44
23 -45 23 -441 23 -396 0 -397 0 -441 -23z m571 -1602 c90 -7 217 -40 319 -83
228 -96 454 -309 569 -537 133 -266 150 -628 42 -910 -123 -318 -386 -568
-709 -674 -243 -80 -537 -69 -776 29 -429 175 -703 579 -706 1041 -2 322 111
595 341 819 192 188 431 298 695 320 80 6 103 6 225 -5z"/>
</g>
</svg>
